<svg width="24" height="24" viewBox="0 0 24 24" fill="none" xmlns="http://www.w3.org/2000/svg">
<rect width="24" height="24" fill="white"/>
<path d="M20 10.063V10.8384L20.751 11.0315C20.9659 11.0867 21.1563 11.2119 21.2922 11.3872C21.4282 11.5626 21.502 11.7781 21.502 12C21.502 12.2219 21.4282 12.4374 21.2922 12.6128C21.1563 12.7881 20.9659 12.9133 20.751 12.9685L20 13.1616V13.937V20H19.3973C18.3015 19.0188 16.8767 18.2777 15.4952 17.7211C14.2807 17.2318 13.0476 16.8648 12 16.5993V7.4007C13.0476 7.1352 14.2807 6.76822 15.4952 6.27893C16.8767 5.72235 18.3015 4.98116 19.3973 4L20 4V10.063ZM6.98058 16.8039L6.8198 16H6H5C4.73478 16 4.48043 15.8946 4.29289 15.7071C4.10536 15.5196 4 15.2652 4 15V9C4 8.73478 4.10536 8.48043 4.29289 8.29289C4.48043 8.10536 4.73478 8 5 8H8V21H7.8198L6.98058 16.8039Z" fill="#3B3B3B" stroke="#3B3B3B" stroke-width="2"/>
</svg>
