<svg width="24" height="22" viewBox="0 0 24 22" fill="none" xmlns="http://www.w3.org/2000/svg">
<path d="M10 7.33341V5.50008C10 5.01385 10.2107 4.54754 10.5858 4.20372C10.9609 3.8599 11.4696 3.66675 12 3.66675H19C19.5304 3.66675 20.0391 3.8599 20.4142 4.20372C20.7893 4.54754 21 5.01385 21 5.50008V16.5001C21 16.9863 20.7893 17.4526 20.4142 17.7964C20.0391 18.1403 19.5304 18.3334 19 18.3334H12C11.4696 18.3334 10.9609 18.1403 10.5858 17.7964C10.2107 17.4526 10 16.9863 10 16.5001V14.6667M15 11.0001H3M3 11.0001L6 8.25008M3 11.0001L6 13.7501" stroke="#424242" stroke-linecap="round" stroke-linejoin="round"/>
</svg>
